<?xml version="1.0" standalone="no"?>
<!DOCTYPE svg PUBLIC "-//W3C//DTD SVG 20010904//EN"
 "http://www.w3.org/TR/2001/REC-SVG-20010904/DTD/svg10.dtd">
<svg version="1.0" xmlns="http://www.w3.org/2000/svg"
 width="3192.000000pt" height="3192.000000pt" viewBox="0 0 3192.000000 3192.000000"
 preserveAspectRatio="xMidYMid meet">
<metadata>
Created by potrace 1.14, written by Peter Selinger 2001-2017
</metadata>
<g transform="translate(0.000000,3192.000000) scale(0.100000,-0.100000)"
fill="#000000" stroke="none">
<path d="M12776 24924 c67 -416 339 -1238 740 -2236 68 -170 124 -311 124
-314 0 -2 -175 -4 -390 -4 l-390 0 0 -1880 0 -1880 545 0 c511 0 546 -1 552
-17 50 -144 113 -264 187 -358 l23 -30 -123 -750 c-68 -412 -123 -762 -124
-777 l0 -28 104 0 c99 0 104 1 109 23 3 12 53 319 112 682 58 363 108 666 110
673 3 9 15 6 43 -12 210 -132 503 -209 851 -223 140 -5 163 -4 156 8 -5 8 -23
34 -41 59 -121 171 -171 404 -130 606 l16 81 -244 494 c-134 272 -316 645
-403 829 -88 184 -187 391 -220 460 l-60 125 -82 -165 c-125 -254 -213 -486
-270 -720 -56 -224 -65 -299 -65 -532 l-1 -218 -417 0 -418 0 0 1665 0 1665
333 0 333 0 34 -82 c50 -126 400 -933 553 -1278 648 -1464 1525 -3270 2030
-4182 72 -131 135 -238 139 -238 4 0 14 13 22 29 27 51 117 121 221 172 96 47
267 99 325 99 l28 0 -58 138 c-375 898 -1543 3262 -2569 5201 -39 74 -69 136
-67 138 1 2 312 2 690 1 l688 -3 -128 -101 c-221 -174 -515 -461 -697 -680
l-25 -30 67 -125 c240 -442 861 -1643 989 -1914 l33 -70 102 -1 c81 -1 117 -7
173 -26 154 -54 273 -167 363 -345 47 -93 77 -193 111 -364 45 -230 93 -316
207 -376 85 -45 149 -57 267 -50 166 9 335 65 531 174 483 270 929 742 1194
1262 266 522 343 1029 235 1543 -127 606 -595 1244 -1104 1507 -141 73 -271
121 -400 149 -448 97 -917 15 -1429 -249 l-154 -80 -81 3 -81 3 -65 233 -65
232 -420 -2 -419 -3 -65 -232 -65 -233 -287 0 -287 0 -203 378 c-250 466 -535
985 -704 1282 -252 445 -563 955 -592 973 -6 4 -5 -28 3 -79z m2905 -2426 l45
-123 -324 -3 c-179 -1 -327 0 -330 2 -2 3 15 59 39 125 l44 121 241 0 241 0
44 -122z"/>
<path d="M17010 16543 c-110 -19 -261 -84 -333 -144 -45 -37 -77 -96 -77 -141
0 -61 39 -272 74 -399 159 -580 572 -1163 939 -1328 53 -25 157 -54 157 -46 0
2 -35 54 -77 117 -89 132 -151 257 -189 383 -25 85 -27 106 -34 380 -6 237
-11 309 -29 391 -42 201 -136 426 -276 659 -82 138 -85 140 -155 128z"/>
<path d="M9197 12034 c-66 -21 -129 -84 -148 -149 -11 -39 -14 -124 -14 -390
0 -337 0 -341 24 -393 25 -54 75 -106 120 -124 90 -35 216 -25 293 22 l47 28
44 -39 c25 -21 49 -39 54 -39 4 0 17 13 27 27 l20 27 -51 45 -50 46 13 40 c20
64 19 674 -1 743 -19 62 -63 115 -119 144 -54 28 -190 35 -259 12z m206 -68
c47 -19 84 -68 97 -128 12 -57 11 -671 -2 -683 -4 -4 -37 18 -75 48 l-68 56
-22 -21 c-13 -12 -23 -26 -23 -32 1 -6 32 -35 70 -65 39 -30 70 -57 70 -60 0
-17 -69 -44 -124 -48 -85 -7 -140 23 -178 96 l-28 53 0 327 c0 182 4 341 10
360 12 41 45 79 85 97 39 17 147 18 188 0z"/>
<path d="M13912 12031 c-63 -22 -94 -49 -124 -110 -22 -45 -23 -56 -26 -394
-4 -389 1 -425 61 -494 51 -57 104 -76 220 -76 87 1 104 4 155 29 62 31 95 72
112 136 7 24 10 171 8 401 -3 352 -4 363 -25 404 -29 53 -84 98 -139 112 -66
17 -182 13 -242 -8z m230 -77 c36 -18 73 -69 88 -119 8 -28 10 -136 8 -355 -3
-284 -5 -319 -22 -353 -47 -94 -212 -125 -300 -56 -15 11 -37 40 -49 62 -21
40 -22 54 -25 340 -4 340 2 390 52 444 54 59 172 76 248 37z"/>
<path d="M15510 12035 c-25 -8 -64 -30 -87 -50 -58 -49 -78 -107 -78 -220 0
-80 3 -95 28 -137 34 -59 85 -94 220 -153 169 -74 227 -138 227 -251 0 -115
-62 -184 -171 -192 -75 -6 -101 1 -144 39 -40 35 -65 105 -65 181 l0 48 -46 0
-47 0 5 -83 c5 -107 41 -178 109 -220 89 -55 248 -55 338 0 89 54 133 201 97
326 -26 89 -88 145 -242 218 -144 68 -170 86 -201 137 -49 79 -20 219 55 269
64 42 161 42 223 0 54 -36 72 -79 77 -179 l4 -88 44 0 44 0 0 73 c0 144 -58
247 -157 281 -57 19 -172 20 -233 1z"/>
<path d="M16250 12031 c-70 -25 -114 -72 -135 -145 -14 -47 -16 -107 -13 -408
3 -340 4 -355 25 -393 49 -92 116 -127 243 -128 141 0 214 32 260 113 l25 45
0 385 c0 375 -1 386 -22 425 -47 87 -105 118 -233 122 -75 3 -107 -1 -150 -16z
m232 -77 c38 -20 75 -71 88 -124 7 -30 10 -148 8 -355 -3 -305 -3 -311 -27
-351 -60 -105 -227 -123 -313 -34 -52 56 -58 97 -58 415 0 310 7 361 54 412
54 59 172 76 248 37z"/>
<path d="M18590 12035 c-60 -19 -113 -65 -141 -122 -20 -39 -24 -64 -24 -138
0 -157 45 -213 238 -296 114 -49 166 -84 207 -141 26 -36 30 -49 30 -108 0
-129 -68 -200 -192 -200 -33 0 -69 5 -81 11 -68 35 -107 112 -107 211 l0 48
-46 0 -47 0 5 -83 c4 -70 9 -93 35 -138 54 -96 163 -139 304 -119 91 13 147
51 184 125 27 53 30 70 30 150 0 80 -3 95 -28 137 -39 67 -95 109 -237 177
-142 68 -148 72 -184 125 -53 78 -25 221 52 273 64 42 160 42 223 0 53 -35 79
-97 79 -189 l0 -78 46 0 46 0 -4 93 c-7 144 -57 228 -156 262 -56 18 -171 19
-232 0z"/>
<path d="M24484 12041 c-125 -32 -184 -121 -184 -275 1 -139 45 -198 200 -268
186 -84 226 -112 259 -181 34 -70 22 -176 -26 -229 -48 -55 -173 -75 -243 -40
-45 22 -78 72 -85 130 -17 133 -11 122 -62 122 l-46 0 6 -75 c16 -181 105
-266 280 -268 96 -1 154 19 207 72 55 55 70 100 70 207 0 145 -58 213 -273
317 -144 70 -179 99 -198 170 -23 87 15 195 83 230 21 10 64 21 95 24 48 4 66
1 103 -19 65 -35 91 -87 98 -194 l5 -84 38 0 39 0 0 93 c-1 133 -35 203 -125
250 -44 22 -183 33 -241 18z"/>
<path d="M6330 11505 l0 -535 270 0 270 0 0 45 0 45 -230 0 -230 0 0 210 0
210 225 0 225 0 0 35 0 35 -225 0 -225 0 0 200 0 200 225 0 225 0 0 45 0 45
-265 0 -265 0 0 -535z"/>
<path d="M7060 11506 l0 -536 45 0 45 0 0 443 0 442 199 -440 198 -440 52 -3
51 -3 0 535 0 536 -40 0 c-22 0 -41 -3 -41 -7 -1 -5 -5 -197 -8 -428 l-6 -419
-200 424 -201 425 -47 3 -47 3 0 -535z"/>
<path d="M7880 11505 l0 -535 40 0 40 0 0 220 0 221 107 -3 107 -3 112 -210
c62 -115 114 -214 116 -218 2 -5 27 -7 55 -5 l51 3 -123 220 c-109 192 -122
221 -108 230 47 28 116 104 140 154 25 49 28 67 28 152 0 86 -3 101 -30 154
-19 37 -46 72 -73 92 -68 51 -123 63 -304 63 l-158 0 0 -535z m350 441 c104
-54 148 -144 130 -263 -13 -81 -41 -127 -99 -161 -42 -25 -56 -27 -173 -31
l-128 -3 0 242 0 242 118 -4 c88 -3 126 -8 152 -22z"/>
<path d="M8700 11505 l0 -535 45 0 45 0 0 535 0 535 -45 0 -45 0 0 -535z"/>
<path d="M9802 11598 c4 -495 4 -498 75 -570 47 -48 116 -71 208 -71 137 1
204 35 250 128 l30 60 3 448 3 447 -45 0 -46 0 0 -427 c0 -476 -1 -478 -69
-536 -59 -49 -183 -51 -245 -3 -73 55 -71 41 -74 529 l-3 437 -45 0 -45 0 3
-442z"/>
<path d="M10570 11505 l0 -535 270 0 270 0 0 45 0 45 -230 0 -230 0 0 210 0
210 225 0 225 0 0 35 0 35 -225 0 -225 0 0 200 0 200 225 0 225 0 0 45 0 45
-265 0 -265 0 0 -535z"/>
<path d="M11945 12028 c-14 -42 -285 -1037 -285 -1047 0 -6 16 -11 38 -11 l38
0 38 155 38 155 171 -2 171 -3 31 -125 c17 -69 35 -137 38 -152 7 -25 12 -28
47 -28 22 0 40 2 40 5 0 2 -60 224 -134 492 -74 269 -139 507 -145 531 -11 39
-14 42 -47 42 -19 0 -37 -6 -39 -12z m181 -665 c-2 -2 -68 -2 -148 -1 l-145 3
76 293 76 294 72 -293 c40 -161 71 -294 69 -296z"/>
<path d="M12480 11505 l0 -535 225 0 225 0 0 40 0 40 -180 0 -180 0 0 495 0
495 -45 0 -45 0 0 -535z"/>
<path d="M13080 11505 l0 -535 45 0 45 0 0 240 0 240 215 0 215 0 0 40 0 40
-215 0 -215 0 0 210 0 210 220 0 220 0 0 45 0 45 -265 0 -265 0 0 -535z"/>
<path d="M14540 11505 l0 -535 40 0 40 0 2 444 3 445 200 -445 200 -444 52 0
53 0 0 535 0 535 -45 0 -45 0 -1 -282 c-1 -156 -4 -346 -8 -422 l-6 -139 -199
422 -199 421 -43 0 -44 0 0 -535z"/>
<path d="M17250 12037 c0 -3 65 -241 145 -530 80 -289 145 -528 145 -532 0 -3
17 -5 37 -3 l38 3 147 530 c81 292 148 531 148 533 0 2 -19 2 -42 0 l-41 -3
-123 -453 c-67 -250 -124 -455 -126 -457 -2 -2 -57 202 -123 453 l-121 457
-42 3 c-23 2 -42 1 -42 -1z"/>
<path d="M18110 11505 l0 -535 50 0 50 0 0 535 0 535 -50 0 -50 0 0 -535z"/>
<path d="M19202 11588 l3 -453 30 -55 c54 -98 164 -140 311 -119 76 11 108 26
152 70 60 62 62 76 62 566 l0 443 -40 0 -40 0 0 -412 c0 -271 -4 -427 -11
-453 -25 -88 -89 -134 -187 -135 -63 0 -107 17 -144 56 -52 56 -52 59 -56 517
l-3 427 -40 0 -40 0 3 -452z"/>
<path d="M20051 11523 c-79 -285 -146 -526 -148 -535 -5 -15 1 -18 35 -18 l40
0 38 155 38 155 172 0 171 0 37 -155 38 -155 42 0 43 0 -113 413 c-63 226
-129 466 -147 532 l-32 120 -36 3 -35 3 -143 -518z m252 130 c37 -153 67 -281
67 -285 0 -10 -290 -11 -290 -1 0 20 145 563 150 563 3 0 36 -125 73 -277z"/>
<path d="M20730 11505 l0 -535 220 0 220 0 0 40 0 40 -180 0 -180 0 0 495 0
495 -40 0 -40 0 0 -535z"/>
<path d="M21990 12036 c0 -2 -63 -231 -139 -508 -77 -277 -143 -515 -146 -530
-7 -27 -6 -28 33 -28 l40 0 38 155 38 155 171 0 171 0 38 -155 38 -155 39 0
c25 0 39 5 39 13 -1 6 -65 246 -144 532 l-143 520 -36 3 c-21 2 -37 1 -37 -2z
m113 -386 c37 -152 67 -279 67 -283 0 -9 -290 -9 -290 1 -1 20 146 570 151
564 3 -4 36 -131 72 -282z"/>
<path d="M22530 11505 l0 -535 40 0 40 0 0 220 0 220 103 0 104 0 115 -217
115 -218 52 -3 c28 -2 51 -1 51 2 0 3 -55 103 -121 223 l-121 217 23 16 c123
80 185 222 158 366 -15 79 -39 124 -95 173 -68 60 -117 71 -306 71 l-158 0 0
-535z m319 449 c65 -19 131 -81 149 -140 29 -99 4 -213 -59 -267 -51 -44 -103
-57 -228 -57 l-101 0 0 240 0 240 93 0 c56 0 115 -6 146 -16z"/>
<path d="M23240 12000 l0 -40 115 0 115 0 0 -495 0 -495 45 0 45 0 0 495 0
495 115 0 115 0 0 40 0 40 -275 0 -275 0 0 -40z"/>
<path d="M23990 11505 l0 -535 45 0 45 0 0 535 0 535 -45 0 -45 0 0 -535z"/>
<path d="M24990 12000 l0 -40 115 0 115 0 0 -495 0 -495 45 0 45 0 0 495 0
495 115 0 115 0 0 40 0 40 -275 0 -275 0 0 -40z"/>
<path d="M13804 9070 c-162 -24 -259 -100 -302 -240 -15 -49 -17 -112 -17
-560 l0 -505 25 -69 c47 -129 134 -196 288 -218 62 -9 103 -9 172 -1 189 24
285 103 319 261 17 81 15 1011 -3 1077 -40 150 -135 232 -295 255 -74 11 -113
11 -187 0z m167 -110 c29 -6 71 -22 92 -36 43 -28 93 -100 108 -156 11 -43 14
-939 3 -985 -21 -88 -84 -154 -170 -179 -69 -20 -189 -20 -237 -1 -54 23 -112
82 -138 140 -24 52 -24 54 -27 492 -4 494 0 546 51 623 61 89 180 128 318 102z"/>
<path d="M21155 9070 c-113 -15 -218 -78 -271 -161 -47 -75 -70 -207 -54 -318
20 -143 93 -231 258 -307 332 -156 369 -182 419 -291 22 -49 25 -65 21 -141
-3 -73 -9 -96 -33 -141 -47 -86 -135 -131 -254 -131 -98 0 -139 15 -192 69
-52 54 -79 130 -79 227 0 101 -2 104 -76 104 l-64 0 0 -57 c0 -151 40 -265
119 -344 66 -66 132 -95 244 -105 202 -18 370 66 428 214 20 49 23 76 24 187
0 118 -2 135 -24 180 -14 28 -55 80 -91 116 -67 66 -103 87 -381 218 -89 42
-151 98 -179 163 -19 44 -22 65 -18 142 5 113 38 184 106 227 87 55 233 64
319 21 95 -49 133 -135 133 -299 l0 -103 66 0 67 0 -6 123 c-4 87 -12 140 -27
184 -41 119 -144 200 -281 222 -71 12 -87 12 -174 1z"/>
<path d="M10691 9028 c-10 -33 -403 -1458 -416 -1510 l-7 -28 55 0 c55 0 56 1
65 33 5 17 31 121 58 230 l48 197 251 0 251 0 54 -221 c30 -121 57 -225 61
-230 3 -6 31 -9 61 -7 l55 3 -158 575 c-87 316 -184 668 -215 783 l-57 207
-48 0 c-45 0 -48 -2 -58 -32z m267 -963 c-3 -3 -102 -4 -220 -3 l-215 3 109
420 c60 231 111 427 114 435 3 8 54 -180 112 -417 58 -238 103 -435 100 -438z"/>
<path d="M11330 8275 l0 -785 55 0 55 0 0 325 0 325 154 0 154 0 172 -325 172
-325 75 0 75 0 -25 43 c-99 173 -337 606 -337 614 0 6 14 17 32 24 52 22 150
127 185 199 41 83 52 136 53 235 0 180 -71 318 -204 395 -87 49 -155 60 -398
60 l-218 0 0 -785z m421 675 c111 -21 201 -88 249 -185 22 -45 25 -63 25 -165
0 -130 -18 -186 -78 -248 -77 -81 -154 -102 -369 -102 l-138 0 0 355 0 355
129 0 c70 0 152 -5 182 -10z"/>
<path d="M12210 9000 l0 -60 168 0 168 0 -1 -722 0 -723 65 0 65 0 3 723 2
722 165 0 165 0 0 60 0 60 -400 0 -400 0 0 -60z"/>
<path d="M14440 8275 l0 -785 65 0 65 0 0 350 0 350 310 0 310 0 0 60 0 60
-310 0 -310 0 0 310 0 310 315 0 315 0 0 65 0 65 -380 0 -380 0 0 -785z"/>
<path d="M15670 8275 l0 -786 243 3 c224 3 246 5 298 26 114 46 198 157 228
302 33 158 31 835 -3 957 -35 127 -104 209 -213 253 -55 23 -73 24 -305 28
l-248 4 0 -787z m403 665 c85 -13 135 -38 181 -91 58 -68 75 -129 87 -313 12
-175 6 -541 -11 -645 -13 -77 -38 -129 -93 -188 -73 -79 -98 -87 -289 -91
l-168 -4 0 671 0 671 113 0 c61 0 143 -5 180 -10z"/>
<path d="M16630 8276 l0 -786 55 0 55 0 0 325 0 326 157 -3 157 -3 170 -322
171 -323 73 0 c39 0 72 2 72 4 0 2 -81 149 -180 326 -99 178 -180 324 -180
325 0 2 22 17 49 34 151 98 246 297 225 476 -21 187 -112 313 -272 376 -53 21
-76 23 -304 27 l-248 4 0 -786z m426 673 c192 -35 300 -196 274 -407 -17 -131
-62 -200 -165 -252 l-67 -34 -179 -4 -179 -4 0 356 0 356 128 0 c71 0 155 -5
188 -11z"/>
<path d="M17660 8275 l0 -785 395 0 395 0 0 65 0 65 -335 0 -335 0 0 310 0
310 325 0 325 0 0 55 0 55 -325 0 -325 0 0 290 0 290 325 0 325 0 0 65 0 65
-385 0 -385 0 0 -785z"/>
<path d="M18951 9028 c-15 -50 -421 -1524 -421 -1532 0 -3 25 -6 55 -6 53 0
54 1 63 33 5 17 31 121 58 230 l48 197 251 0 251 0 54 -221 c30 -121 57 -225
61 -230 3 -6 31 -9 61 -7 l55 3 -158 575 c-87 316 -184 668 -215 783 l-57 207
-48 0 c-45 0 -48 -2 -58 -32z m182 -585 l94 -383 -223 0 c-174 0 -222 3 -219
13 2 6 52 197 110 422 58 226 109 417 112 425 3 9 11 -8 19 -40 7 -30 55 -227
107 -437z"/>
<path d="M19580 8275 l0 -785 55 0 55 0 0 653 1 652 175 -430 c97 -236 183
-436 192 -443 10 -8 37 -12 67 -10 l49 3 181 431 180 431 3 -643 2 -644 55 0
55 0 0 785 0 785 -58 0 -58 0 -59 -142 c-32 -79 -127 -306 -210 -505 l-151
-362 -210 505 -209 504 -57 0 -58 0 0 -785z"/>
</g>
</svg>
