
        <svg xmlns="http://www.w3.org/2000/svg" xmlns:xlink="http://www.w3.org/1999/xlink" version="1.1" width="3192" 
        height="3192" viewBox="0 0 3192 3192">
			<rect fill="#3e4259" width="3192" height="3192"/>
			<g transform="scale(9.6) translate(10, 10)">
				<defs id="SvgjsDefs2496"></defs><g id="SvgjsG2497" featureKey="rootContainer" transform="matrix(6.25,0,0,6.25,0.31249523162841797,0)" fill="#f2f2f0"><path xmlns="http://www.w3.org/2000/svg" d="M24.95 0a25 25 0 1 0 25 25 25 25 0 0 0-25-25zm0 46.91a22 22 0 1 1 22-22 22 22 0 0 1-22 21.99z"></path><path xmlns="http://www.w3.org/2000/svg" d="M24.95 3.65a21.3 21.3 0 1 0 21.3 21.3 21.33 21.33 0 0 0-21.3-21.3z"></path></g><g id="SvgjsG2498" featureKey="symbolFeature-0" transform="matrix(4.95286750793457,0,0,4.95286750793457,122.9995064023321,62)" fill="#bf8484"><defs xmlns="http://www.w3.org/2000/svg"></defs><g xmlns="http://www.w3.org/2000/svg"><path class="fil0" d="M12.5332 6.3337c3.817,4.8491 -3.7108,10.3465 -4.1064,7.491 -0.1839,-1.327 -0.883,-1.7561 -1.5891,-1.6638 -0.6767,-1.3763 -1.4757,-2.9102 -2.2971,-4.4342 0.5475,-0.6543 1.17,-1.2493 1.8319,-1.7308l-5.7433 0 0 7.0272 1.7793 0c-0.1257,-0.998 0.2182,-2.228 0.8633,-3.4305 0.6404,1.3698 1.308,2.7389 1.9435,4.0004 -0.1498,0.4967 -0.0863,1.0587 0.3354,1.5793 -0.9829,0.0124 -1.708,-0.1874 -2.2147,-0.5392l-0.4776 2.9312 -0.4387 0 0.5329 -3.2702c-0.2132,-0.2408 -0.3624,-0.5232 -0.4545,-0.8368l-2.303 0 0 -7.8955 4.1803 0 0.2763 -0.988 1.752 0 0.2763 0.988 0.3532 0c1.8665,-1.0952 3.9404,-1.2094 5.5,0.7719zm-7.7192 -0.7719l1.4274 0 -0.2056 -0.5538 -1.0162 0 -0.2056 0.5538zm6.0096 4.8837c0.4584,0 0.83,0.3716 0.83,0.83 0,0.4583 -0.3716,0.8299 -0.83,0.8299 -0.4584,0 -0.83,-0.3716 -0.83,-0.8299 0,-0.4584 0.3716,-0.83 0.83,-0.83zm1.0968 -2.1046c0.4584,0 0.83,0.3715 0.83,0.8299 0,0.4584 -0.3716,0.83 -0.83,0.83 -0.4584,0 -0.83,-0.3716 -0.83,-0.83 0,-0.4584 0.3716,-0.8299 0.83,-0.8299zm-0.6225 -2.0158c0.4584,0 0.83,0.3716 0.83,0.83 0,0.4584 -0.3716,0.83 -0.83,0.83 -0.4584,0 -0.83,-0.3716 -0.83,-0.83 0,-0.4584 0.3716,-0.83 0.83,-0.83zm-2.2232 -0.2371c0.4584,0 0.83,0.3716 0.83,0.83 0,0.4584 -0.3716,0.83 -0.83,0.83 -0.4584,0 -0.83,-0.3716 -0.83,-0.83 0,-0.4584 0.3716,-0.83 0.83,-0.83z" style="fill: #bf8484;"></path><path class="fil0" d="M10.5187 22.1262c-1.3665,-1.8057 0.1405,-1.8665 -1.4359,-4.3077 -0.0514,-0.0796 -1.058,0.1645 -1.0144,0.6171 0.1671,1.7333 1.4685,3.5586 2.4503,3.6906z" style="fill: #bf8484;"></path><path class="fil0" d="M7.8324 18.1739c-2.2221,-3.8979 -7.5075,-15.2996 -7.8323,-18.1739 1.53,2.1515 7.7708,14.2927 9.0761,17.5248 -0.2499,-0.0073 -1.078,0.2328 -1.2438,0.6491z" style="fill: #bf8484;"></path></g></g><g id="SvgjsG2499" featureKey="nameFeature-0" transform="matrix(0.37052133679389954,0,0,0.37052133679389954,56,193.39859072871195)" fill="#3e4259"><path d="M0 40 l0 -30 l14.72 0 l0 2.32 l-12.64 0 l0 11.4 l12.52 0 l0 1.84 l-12.52 0 l0 12.12 l12.92 0 l0 2.32 l-15 0 z M34.255 40 l-11.6 -25.76 l0 25.76 l-2.2 0 l0 -30 l2.36 0 l11.6 24.6 l0.28 -24.6 l2.16 0 l0 30 l-2.6 0 z M58.31 40 l-6.6 -12.44 l-6.12 0 l0 12.44 l-1.96 0 l0 -30 l6.8 0 c1.5733 0 2.92 0.23332 4.04 0.7 s2.04 1.1 2.76 1.9 s1.2533 1.7267 1.6 2.78 s0.52 2.1533 0.52 3.3 c0 1.9467 -0.5 3.7 -1.5 5.26 s-2.3133 2.7 -3.94 3.42 l7.04 12.64 l-2.64 0 z M50.150000000000006 11.84 l-4.56 -0.000039062 l0 13.68 l4.84 0 c1.36 0 2.48 -0.20668 3.36 -0.62 s1.5667 -0.94664 2.06 -1.6 s0.84 -1.4 1.04 -2.24 s0.3 -1.7 0.3 -2.58 c0 -0.93332 -0.16 -1.8 -0.48 -2.6 s-0.78 -1.5 -1.38 -2.1 s-1.3333 -1.0733 -2.2 -1.42 s-1.86 -0.52 -2.98 -0.52 z M66.44500000000001 40 l0 -30 l2.56 0 l0 30 l-2.56 0 z M92.22000000000001 40.56 l-2.76 -2.4 c-1.7067 1.4667 -3.6934 2.2 -5.96 2.2 c-1.12 0 -2.14 -0.16668 -3.06 -0.5 s-1.7133 -0.83332 -2.38 -1.5 s-1.1867 -1.5 -1.56 -2.5 s-0.56 -2.1533 -0.56 -3.46 l0 -14.8 c0 -2.6667 0.69332 -4.6468 2.08 -5.94 s3.3334 -1.94 5.84 -1.94 c1.0933 0 2.1 0.16668 3.02 0.5 s1.72 0.82664 2.4 1.48 s1.2067 1.4733 1.58 2.46 s0.56 2.12 0.56 3.4 l0 14.84 c0 1.4933 -0.29332 2.92 -0.88 4.28 l2.88 2.4 z M89.30000000000001 17.16 c0 -0.66668 -0.08664 -1.3401 -0.25996 -2.0201 s-0.46664 -1.3 -0.87996 -1.86 s-0.98 -1.0133 -1.7 -1.36 s-1.6133 -0.52 -2.68 -0.52 c-1.1733 0 -2.1333 0.15332 -2.88 0.46 s-1.3267 0.73336 -1.74 1.28 s-0.7 1.2 -0.86 1.96 s-0.24 1.5933 -0.24 2.5 l0 14.96 c0 0.69332 0.10668 1.3866 0.32 2.08 s0.54664 1.3333 0.99996 1.92 s1.0266 1.06 1.72 1.42 s1.5333 0.54 2.52 0.54 c0.8 0 1.5467 -0.12668 2.24 -0.38 s1.3733 -0.67332 2.04 -1.26 l-4.24 -3.44 l1.12 -1.4 l4.12 3.28 c0.13332 -0.61332 0.23332 -1.1066 0.3 -1.48 s0.1 -0.74664 0.1 -1.12 l0 -15.56 z M105.31500000000001 40.36 c-2.4533 0 -4.3536 -0.66672 -5.7 -2 s-2.02 -3.3066 -2.02 -5.92 l0 -22.44 l2.16 0 l0 22.32 c0 0.64 0.08668 1.3133 0.26 2.02 s0.47332 1.3467 0.9 1.92 s0.99336 1.0466 1.7 1.42 s1.58 0.56 2.62 0.56 c1.1467 0 2.0934 -0.16668 2.84 -0.5 s1.3467 -0.79332 1.8 -1.38 s0.77332 -1.28 0.96 -2.08 s0.28 -1.6533 0.28 -2.56 l0 -21.72 l2.12 0 l0 22.44 c0 2.6667 -0.64668 4.6532 -1.94 5.96 s-3.2866 1.96 -5.98 1.96 z M119.09000000000002 40 l0 -30 l14.72 0 l0 2.32 l-12.64 0 l0 11.4 l12.52 0 l0 1.84 l-12.52 0 l0 12.12 l12.92 0 l0 2.32 l-15 0 z M165.8 40 l-2.2 -8.84 l-9.76 0 l-2.2 8.84 l-2 0 l8.28 -30 l1.72 0 l8.24 30 l-2.08 0 z M158.84 11.879999999999999 l-4.52 17.36 l8.76 0 z M172.855 40 l0 -30 l2.16 0 l0 27.84 l10.2 0 l0 2.16 l-12.36 0 z M192.02999999999997 12.280000000000001 l0 12.12 l12.04 0 l0 2.12 l-12.04 0 l0 13.48 l-2.32 0 l0 -30 l14.56 0 l0 2.28 l-12.24 0 z M216.36499999999998 40.36 c-5.04 0 -7.56 -2.64 -7.56 -7.92 l0 -14.8 c0 -2.6667 0.63332 -4.6532 1.9 -5.96 s3.3134 -1.96 6.14 -1.96 c2.5867 0 4.5 0.66 5.74 1.98 s1.86 3.2733 1.86 5.86 l0 14.88 c0 1.3333 -0.14 2.4933 -0.42 3.48 s-0.74 1.8134 -1.38 2.48 s-1.4733 1.16 -2.5 1.48 s-2.2867 0.48 -3.78 0.48 z M222.325 17.52 c0 -0.66668 -0.09328 -1.3468 -0.27996 -2.0401 s-0.49336 -1.3266 -0.92004 -1.9 s-0.99336 -1.04 -1.7 -1.4 s-1.58 -0.54 -2.62 -0.54 c-1.1467 0 -2.1 0.16 -2.86 0.48 s-1.36 0.76668 -1.8 1.34 s-0.75332 1.2466 -0.94 2.02 s-0.28 1.6133 -0.28 2.52 l0 14.2 c0 0.69332 0.08 1.4 0.24 2.12 s0.44668 1.38 0.86 1.98 s0.97332 1.0933 1.68 1.48 s1.5934 0.58 2.66 0.58 c1.1467 0 2.1 -0.15332 2.86 -0.46 s1.3667 -0.72668 1.82 -1.26 s0.78 -1.1666 0.98 -1.9 s0.3 -1.5266 0.3 -2.38 l0 -14.84 z M244.42 40 l-11.6 -25.76 l0 25.76 l-2.2 0 l0 -30 l2.36 0 l11.6 24.6 l0.28 -24.6 l2.16 0 l0 30 l-2.6 0 z M261.395 40.36 c-1.3067 0 -2.4669 -0.17348 -3.4802 -0.52016 s-1.8666 -0.9 -2.56 -1.66 s-1.2066 -1.7533 -1.54 -2.98 s-0.47332 -2.7067 -0.42 -4.44 l2.4 0 c0 0.85332 0.04 1.74 0.12 2.66 s0.29332 1.76 0.64 2.52 s0.87336 1.38 1.58 1.86 s1.6867 0.72 2.94 0.72 c1.0667 0 1.9734 -0.16 2.72 -0.48 s1.3534 -0.74668 1.82 -1.28 s0.79336 -1.16 0.98004 -1.88 s0.28 -1.4667 0.28 -2.24 c0 -0.90668 -0.16668 -1.7 -0.5 -2.38 s-0.77332 -1.2867 -1.32 -1.82 s-1.1867 -1.0066 -1.92 -1.42 s-1.5 -0.78 -2.3 -1.1 c-1.28 -0.50668 -2.4 -1.0067 -3.36 -1.5 s-1.7467 -1.0466 -2.36 -1.66 s-1.0733 -1.3266 -1.38 -2.14 s-0.46 -1.8066 -0.46 -2.98 c0 -2.6667 0.7 -4.6532 2.1 -5.96 s3.4067 -1.96 6.02 -1.96 c2.2667 0 4.06 0.66 5.38 1.98 s1.98 3.3 1.98 5.94 l0 2.2 l-2.24 0 l0 -2.4 c0 -0.82668 -0.1 -1.5934 -0.3 -2.3 s-0.51332 -1.3267 -0.94 -1.86 s-0.96668 -0.95332 -1.62 -1.26 s-1.4333 -0.46 -2.34 -0.46 c-2.1333 0 -3.66 0.56 -4.58 1.68 s-1.34 2.6267 -1.26 4.52 c0.02668 0.82668 0.18 1.5334 0.46 2.12 s0.65332 1.1 1.12 1.54 s1.0267 0.83332 1.68 1.18 s1.38 0.69336 2.18 1.04 c0.93332 0.4 1.86 0.82668 2.78 1.28 s1.78 1.0133 2.58 1.68 c0.8 0.69332 1.46 1.5 1.98 2.42 s0.78 2.06 0.78 3.42 c0 2.64 -0.67332 4.62 -2.02 5.94 s-3.22 1.98 -5.62 1.98 z M282.13 40.36 c-5.04 0 -7.56 -2.64 -7.56 -7.92 l0 -14.8 c0 -2.6667 0.63332 -4.6532 1.9 -5.96 s3.3134 -1.96 6.14 -1.96 c2.5867 0 4.5 0.66 5.74 1.98 s1.86 3.2733 1.86 5.86 l0 14.88 c0 1.3333 -0.14 2.4933 -0.42 3.48 s-0.74 1.8134 -1.38 2.48 s-1.4733 1.16 -2.5 1.48 s-2.2867 0.48 -3.78 0.48 z M288.09 17.52 c0 -0.66668 -0.09328 -1.3468 -0.27996 -2.0401 s-0.49336 -1.3266 -0.92004 -1.9 s-0.99336 -1.04 -1.7 -1.4 s-1.58 -0.54 -2.62 -0.54 c-1.1467 0 -2.1 0.16 -2.86 0.48 s-1.36 0.76668 -1.8 1.34 s-0.75332 1.2466 -0.94 2.02 s-0.28 1.6133 -0.28 2.52 l0 14.2 c0 0.69332 0.08 1.4 0.24 2.12 s0.44668 1.38 0.86 1.98 s0.97332 1.0933 1.68 1.48 s1.5934 0.58 2.66 0.58 c1.1467 0 2.1 -0.15332 2.86 -0.46 s1.3667 -0.72668 1.82 -1.26 s0.78 -1.1666 0.98 -1.9 s0.3 -1.5266 0.3 -2.38 l0 -14.84 z M316.92 40 l-1.72 0 l-8.28 -30 l2.12 0 l7 26.52 l7.16 -26.52 l2.04 0 z M331.135 40 l0 -30 l2.56 0 l0 30 l-2.56 0 z M347.99 40.36 c-1.3067 0 -2.4669 -0.17348 -3.4802 -0.52016 s-1.8666 -0.9 -2.56 -1.66 s-1.2066 -1.7533 -1.54 -2.98 s-0.47332 -2.7067 -0.42 -4.44 l2.4 0 c0 0.85332 0.04 1.74 0.12 2.66 s0.29332 1.76 0.64 2.52 s0.87336 1.38 1.58 1.86 s1.6867 0.72 2.94 0.72 c1.0667 0 1.9734 -0.16 2.72 -0.48 s1.3534 -0.74668 1.82 -1.28 s0.79336 -1.16 0.98004 -1.88 s0.28 -1.4667 0.28 -2.24 c0 -0.90668 -0.16668 -1.7 -0.5 -2.38 s-0.77332 -1.2867 -1.32 -1.82 s-1.1867 -1.0066 -1.92 -1.42 s-1.5 -0.78 -2.3 -1.1 c-1.28 -0.50668 -2.4 -1.0067 -3.36 -1.5 s-1.7467 -1.0466 -2.36 -1.66 s-1.0733 -1.3266 -1.38 -2.14 s-0.46 -1.8066 -0.46 -2.98 c0 -2.6667 0.7 -4.6532 2.1 -5.96 s3.4067 -1.96 6.02 -1.96 c2.2667 0 4.06 0.66 5.38 1.98 s1.98 3.3 1.98 5.94 l0 2.2 l-2.24 0 l0 -2.4 c0 -0.82668 -0.1 -1.5934 -0.3 -2.3 s-0.51332 -1.3267 -0.94 -1.86 s-0.96668 -0.95332 -1.62 -1.26 s-1.4333 -0.46 -2.34 -0.46 c-2.1333 0 -3.66 0.56 -4.58 1.68 s-1.34 2.6267 -1.26 4.52 c0.02668 0.82668 0.18 1.5334 0.46 2.12 s0.65332 1.1 1.12 1.54 s1.0267 0.83332 1.68 1.18 s1.38 0.69336 2.18 1.04 c0.93332 0.4 1.86 0.82668 2.78 1.28 s1.78 1.0133 2.58 1.68 c0.8 0.69332 1.46 1.5 1.98 2.42 s0.78 2.06 0.78 3.42 c0 2.64 -0.67332 4.62 -2.02 5.94 s-3.22 1.98 -5.62 1.98 z M369.48500000000007 40.36 c-2.4533 0 -4.3536 -0.66672 -5.7 -2 s-2.02 -3.3066 -2.02 -5.92 l0 -22.44 l2.16 0 l0 22.32 c0 0.64 0.08668 1.3133 0.26 2.02 s0.47332 1.3467 0.9 1.92 s0.99336 1.0466 1.7 1.42 s1.58 0.56 2.62 0.56 c1.1467 0 2.0934 -0.16668 2.84 -0.5 s1.3467 -0.79332 1.8 -1.38 s0.77332 -1.28 0.96 -2.08 s0.28 -1.6533 0.28 -2.56 l0 -21.72 l2.12 0 l0 22.44 c0 2.6667 -0.64668 4.6532 -1.94 5.96 s-3.2866 1.96 -5.98 1.96 z M397.58000000000004 40 l-2.2 -8.84 l-9.76 0 l-2.2 8.84 l-2 0 l8.28 -30 l1.72 0 l8.24 30 l-2.08 0 z M390.62000000000006 11.879999999999999 l-4.52 17.36 l8.76 0 z M404.63500000000005 40 l0 -30 l2.16 0 l0 27.84 l10.2 0 l0 2.16 l-12.36 0 z M448.1450000000001 40 l-2.2 -8.84 l-9.76 0 l-2.2 8.84 l-2 0 l8.28 -30 l1.72 0 l8.24 30 l-2.08 0 z M441.18500000000006 11.879999999999999 l-4.52 17.36 l8.76 0 z M470.0400000000001 40 l-6.6 -12.44 l-6.12 0 l0 12.44 l-1.96 0 l0 -30 l6.8 0 c1.5733 0 2.92 0.23332 4.04 0.7 s2.04 1.1 2.76 1.9 s1.2533 1.7267 1.6 2.78 s0.52 2.1533 0.52 3.3 c0 1.9467 -0.5 3.7 -1.5 5.26 s-2.3133 2.7 -3.94 3.42 l7.04 12.64 l-2.64 0 z M461.88000000000005 11.84 l-4.56 -0.000039062 l0 13.68 l4.84 0 c1.36 0 2.48 -0.20668 3.36 -0.62 s1.5667 -0.94664 2.06 -1.6 s0.84 -1.4 1.04 -2.24 s0.3 -1.7 0.3 -2.58 c0 -0.93332 -0.16 -1.8 -0.48 -2.6 s-0.78 -1.5 -1.38 -2.1 s-1.3333 -1.0733 -2.2 -1.42 s-1.86 -0.52 -2.98 -0.52 z M484.13500000000005 12.2 l0 27.8 l-2.32 0 l0 -27.8 l-6.52 0 l0 -2.2 l15.36 0 l0 2.2 l-6.52 0 z M496.31000000000006 40 l0 -30 l2.56 0 l0 30 l-2.56 0 z M513.1650000000001 40.36 c-1.3067 0 -2.4669 -0.17348 -3.4802 -0.52016 s-1.8666 -0.9 -2.56 -1.66 s-1.2066 -1.7533 -1.54 -2.98 s-0.47332 -2.7067 -0.42 -4.44 l2.4 0 c0 0.85332 0.04 1.74 0.12 2.66 s0.29332 1.76 0.64 2.52 s0.87336 1.38 1.58 1.86 s1.6867 0.72 2.94 0.72 c1.0667 0 1.9734 -0.16 2.72 -0.48 s1.3534 -0.74668 1.82 -1.28 s0.79336 -1.16 0.98004 -1.88 s0.28 -1.4667 0.28 -2.24 c0 -0.90668 -0.16668 -1.7 -0.5 -2.38 s-0.77332 -1.2867 -1.32 -1.82 s-1.1867 -1.0066 -1.92 -1.42 s-1.5 -0.78 -2.3 -1.1 c-1.28 -0.50668 -2.4 -1.0067 -3.36 -1.5 s-1.7467 -1.0466 -2.36 -1.66 s-1.0733 -1.3266 -1.38 -2.14 s-0.46 -1.8066 -0.46 -2.98 c0 -2.6667 0.7 -4.6532 2.1 -5.96 s3.4067 -1.96 6.02 -1.96 c2.2667 0 4.06 0.66 5.38 1.98 s1.98 3.3 1.98 5.94 l0 2.2 l-2.24 0 l0 -2.4 c0 -0.82668 -0.1 -1.5934 -0.3 -2.3 s-0.51332 -1.3267 -0.94 -1.86 s-0.96668 -0.95332 -1.62 -1.26 s-1.4333 -0.46 -2.34 -0.46 c-2.1333 0 -3.66 0.56 -4.58 1.68 s-1.34 2.6267 -1.26 4.52 c0.02668 0.82668 0.18 1.5334 0.46 2.12 s0.65332 1.1 1.12 1.54 s1.0267 0.83332 1.68 1.18 s1.38 0.69336 2.18 1.04 c0.93332 0.4 1.86 0.82668 2.78 1.28 s1.78 1.0133 2.58 1.68 c0.8 0.69332 1.46 1.5 1.98 2.42 s0.78 2.06 0.78 3.42 c0 2.64 -0.67332 4.62 -2.02 5.94 s-3.22 1.98 -5.62 1.98 z M533.2600000000001 12.2 l0 27.8 l-2.32 0 l0 -27.8 l-6.52 0 l0 -2.2 l15.36 0 l0 2.2 l-6.52 0 z"></path></g><g id="SvgjsG2500" featureKey="sloganFeature-0" transform="matrix(1.0853347778320312,0,0,1.0853347778320312,96.93487958881866,222.72531487861824)" fill="#675f73"><path d="M8.14 20 l-1.1 -4.42 l-4.88 0 l-1.1 4.42 l-1 0 l4.14 -15 l0.86 0 l4.12 15 l-1.04 0 z M4.66 5.9399999999999995 l-2.26 8.68 l4.38 0 z M17.56 20 l-3.3 -6.22 l-3.06 0 l0 6.22 l-0.98 0 l0 -15 l3.4 0 c0.78666 0 1.46 0.11666 2.02 0.35 s1.02 0.55 1.38 0.95 s0.62666 0.86334 0.8 1.39 s0.26 1.0767 0.26 1.65 c0 0.97334 -0.25 1.85 -0.75 2.63 s-1.1567 1.35 -1.97 1.71 l3.52 6.32 l-1.32 0 z M13.479999999999999 5.92 l-2.28 -0.000019531 l0 6.84 l2.42 0 c0.68 0 1.24 -0.10334 1.68 -0.31 s0.78334 -0.47332 1.03 -0.79998 s0.42 -0.7 0.52 -1.12 s0.15 -0.85 0.15 -1.29 c0 -0.46666 -0.08 -0.9 -0.24 -1.3 s-0.39 -0.75 -0.69 -1.05 s-0.66666 -0.53666 -1.1 -0.71 s-0.93 -0.26 -1.49 -0.26 z M23.08 6.1 l0 13.9 l-1.16 0 l0 -13.9 l-3.26 0 l0 -1.1 l7.68 0 l0 1.1 l-3.26 0 z M34.68 20.18 c-2.52 0 -3.78 -1.32 -3.78 -3.96 l0 -7.4 c0 -1.3333 0.31666 -2.3266 0.95 -2.98 s1.6567 -0.98 3.07 -0.98 c1.2933 0 2.25 0.33 2.87 0.99 s0.93 1.6367 0.93 2.93 l0 7.44 c0 0.66666 -0.07 1.2467 -0.21 1.74 s-0.37 0.90668 -0.69 1.24 s-0.73666 0.58 -1.25 0.74 s-1.1433 0.24 -1.89 0.24 z M37.660000000000004 8.76 c0 -0.33334 -0.04664 -0.67338 -0.13998 -1.02 s-0.24668 -0.66332 -0.46002 -0.94998 s-0.49668 -0.52 -0.85002 -0.7 s-0.79 -0.27 -1.31 -0.27 c-0.57334 0 -1.05 0.08 -1.43 0.24 s-0.68 0.38334 -0.9 0.67 s-0.37666 0.62332 -0.47 1.01 s-0.14 0.80666 -0.14 1.26 l0 7.1 c0 0.34666 0.04 0.7 0.12 1.06 s0.22334 0.69 0.43 0.99 s0.48666 0.54666 0.84 0.74 s0.79668 0.29 1.33 0.29 c0.57334 0 1.05 -0.07666 1.43 -0.23 s0.68334 -0.36334 0.91 -0.63 s0.39 -0.58332 0.49 -0.94998 s0.15 -0.76332 0.15 -1.19 l0 -7.42 z M41.24 6.140000000000001 l0 6.06 l6.02 0 l0 1.06 l-6.02 0 l0 6.74 l-1.16 0 l0 -15 l7.28 0 l0 1.14 l-6.12 0 z M59.2 16.96 c-0.09334 0.41334 -0.23 0.80334 -0.41 1.17 s-0.41666 0.69 -0.71 0.97 s-0.65 0.5 -1.07 0.66 s-0.91 0.24 -1.47 0.24 l-3.64 0 l0 -15 l3.5 0 c1.0133 0 1.8633 0.23666 2.55 0.71 s1.13 1.27 1.33 2.39 c0.04 0.21334 0.07334 0.54334 0.1 0.99 s0.04666 0.96 0.06 1.54 s0.02 1.19 0.02 1.83 s-0.01 1.2533 -0.03 1.84 s-0.05 1.1167 -0.09 1.59 s-0.08666 0.83 -0.14 1.07 z M55.220000000000006 6.02 l-2.32 0.000019531 l0 12.9 l2.6 0 c0.36 0 0.68 -0.06334 0.96 -0.19 s0.53 -0.29332 0.75 -0.49998 s0.40334 -0.43666 0.55 -0.69 s0.26666 -0.5 0.36 -0.74 c0.06666 -0.17334 0.12332 -0.48668 0.16998 -0.94002 s0.08 -0.97 0.1 -1.55 s0.03 -1.1967 0.03 -1.85 s-0.01 -1.2667 -0.03 -1.84 s-0.05 -1.08 -0.09 -1.52 s-0.08666 -0.74666 -0.14 -0.92 c-0.08 -0.24 -0.18666 -0.49 -0.32 -0.75 s-0.31 -0.49334 -0.53 -0.7 s-0.5 -0.37666 -0.84 -0.51 s-0.75666 -0.2 -1.25 -0.2 z M68.46000000000001 20 l-3.3 -6.22 l-3.06 0 l0 6.22 l-0.98 0 l0 -15 l3.4 0 c0.78666 0 1.46 0.11666 2.02 0.35 s1.02 0.55 1.38 0.95 s0.62666 0.86334 0.8 1.39 s0.26 1.0767 0.26 1.65 c0 0.97334 -0.25 1.85 -0.75 2.63 s-1.1567 1.35 -1.97 1.71 l3.52 6.32 l-1.32 0 z M64.38000000000001 5.92 l-2.28 -0.000019531 l0 6.84 l2.42 0 c0.68 0 1.24 -0.10334 1.68 -0.31 s0.78334 -0.47332 1.03 -0.79998 s0.42 -0.7 0.52 -1.12 s0.15 -0.85 0.15 -1.29 c0 -0.46666 -0.08 -0.9 -0.24 -1.3 s-0.39 -0.75 -0.69 -1.05 s-0.66666 -0.53666 -1.1 -0.71 s-0.93 -0.26 -1.49 -0.26 z M71 20 l0 -15 l7.36 0 l0 1.16 l-6.32 0 l0 5.7 l6.26 0 l0 0.92 l-6.26 0 l0 6.06 l6.46 0 l0 1.16 l-7.5 0 z M87.42 20 l-1.1 -4.42 l-4.88 0 l-1.1 4.42 l-1 0 l4.14 -15 l0.86 0 l4.12 15 l-1.04 0 z M83.94 5.9399999999999995 l-2.26 8.68 l4.38 0 z M98.68 20 l0 -12.72 l-3.62 8.66 l-1.12 -0.02 l-3.54 -8.66 l0 12.74 l-0.98 0 l0 -15 l1.04 0 l4.06 9.76 l4.08 -9.76 l1.06 0 l0 15 l-0.98 0 z M105.44 20.18 c-0.65334 0 -1.2335 -0.086738 -1.7401 -0.26008 s-0.93332 -0.45 -1.28 -0.83 s-0.60332 -0.87666 -0.76998 -1.49 s-0.23666 -1.3533 -0.21 -2.22 l1.2 0 c0 0.42666 0.02 0.87 0.06 1.33 s0.14666 0.88 0.32 1.26 s0.43668 0.69 0.79002 0.93 s0.84334 0.36 1.47 0.36 c0.53334 0 0.98668 -0.08 1.36 -0.24 s0.67668 -0.37334 0.91002 -0.64 s0.39668 -0.58 0.49002 -0.94 s0.14 -0.73334 0.14 -1.12 c0 -0.45334 -0.08334 -0.85 -0.25 -1.19 s-0.38666 -0.64334 -0.66 -0.91 s-0.59334 -0.50332 -0.96 -0.70998 s-0.75 -0.39 -1.15 -0.55 c-0.64 -0.25334 -1.2 -0.50334 -1.68 -0.75 s-0.87334 -0.52332 -1.18 -0.82998 s-0.53666 -0.66332 -0.69 -1.07 s-0.23 -0.90332 -0.23 -1.49 c0 -1.3333 0.35 -2.3266 1.05 -2.98 s1.7033 -0.98 3.01 -0.98 c1.1333 0 2.03 0.33 2.69 0.99 s0.99 1.65 0.99 2.97 l0 1.1 l-1.12 0 l0 -1.2 c0 -0.41334 -0.05 -0.79668 -0.15 -1.15 s-0.25666 -0.66334 -0.47 -0.93 s-0.48334 -0.47666 -0.81 -0.63 s-0.71666 -0.23 -1.17 -0.23 c-1.0667 0 -1.83 0.28 -2.29 0.84 s-0.67 1.3133 -0.63 2.26 c0.01334 0.41334 0.09 0.76668 0.23 1.06 s0.32666 0.55 0.56 0.77 s0.51334 0.41666 0.84 0.59 s0.69 0.34668 1.09 0.52002 c0.46666 0.2 0.93 0.41334 1.39 0.64 s0.89 0.50666 1.29 0.84 c0.4 0.34666 0.73 0.75 0.99 1.21 s0.39 1.03 0.39 1.71 c0 1.32 -0.33666 2.31 -1.01 2.97 s-1.61 0.99 -2.81 0.99 z"></path></g>
			</g>
		</svg>
	